<svg width="169" height="50" viewBox="0 0 169 50" fill="none" xmlns="http://www.w3.org/2000/svg">
<path d="M17 5L6.4797 21.1851C4.97184 23.5049 4.97184 26.4951 6.4797 28.8149L17 45" stroke="black" stroke-width="9" stroke-linecap="round"/>
<path d="M64 5L74.5203 21.1851C76.0282 23.5049 76.0282 26.4951 74.5203 28.8149L64 45" stroke="black" stroke-width="9" stroke-linecap="round"/>
<path d="M30 16L50.5 33.6863" stroke="#988345" stroke-width="9" stroke-linecap="round"/>
<path d="M92 25V45.5" stroke="black" stroke-width="9" stroke-linecap="round"/>
<path d="M108 45V35C108 29.4772 112.477 25 118 25V25C123.523 25 128 29.4772 128 35V45" stroke="black" stroke-width="9" stroke-linecap="round"/>
<path d="M154 45C159.523 45 164 40.5228 164 35C164 29.4772 159.523 25 154 25C148.477 25 144 29.4772 144 35C144 40.5228 148.477 45 154 45Z" fill="#988345" stroke="black" stroke-width="9" stroke-linecap="round"/>
<circle cx="92" cy="10" r="4.5" fill="#988345" stroke="#988345"/>
</svg>
